<mxfile host="app.diagrams.net" modified="2021-02-26T09:48:34.486Z" agent="5.0 (Windows NT 10.0; Win64; x64) AppleWebKit/537.36 (KHTML, like Gecko) Chrome/88.0.4324.182 Safari/537.36 Edg/88.0.705.74" etag="aEkIxTPeI4VaS3r0v3eI" version="14.4.3" type="github">
  <diagram id="Z0x2t-ABKoLhqLF_gDPw" name="Page-1">
    <mxGraphModel dx="1278" dy="1725" grid="1" gridSize="10" guides="1" tooltips="1" connect="1" arrows="1" fold="1" page="1" pageScale="1" pageWidth="827" pageHeight="1169" math="0" shadow="0">
      <root>
        <mxCell id="0" />
        <mxCell id="1" parent="0" />
        <mxCell id="oCjEifJK1wwtSCwdsAz2-1" value="MOVIE" style="whiteSpace=wrap;html=1;align=center;fontStyle=1;strokeWidth=2;" parent="1" vertex="1">
          <mxGeometry x="120" y="130" width="90" height="30" as="geometry" />
        </mxCell>
        <mxCell id="oCjEifJK1wwtSCwdsAz2-2" value="PRODUCTION&lt;br&gt;COMPANY" style="whiteSpace=wrap;html=1;align=center;fontStyle=1;strokeWidth=2;" parent="1" vertex="1">
          <mxGeometry x="120" y="450" width="90" height="30" as="geometry" />
        </mxCell>
        <mxCell id="oCjEifJK1wwtSCwdsAz2-3" value="DIRECTOR" style="whiteSpace=wrap;html=1;align=center;fontStyle=1;strokeWidth=2;" parent="1" vertex="1">
          <mxGeometry x="590" y="450" width="90" height="30" as="geometry" />
        </mxCell>
        <mxCell id="oCjEifJK1wwtSCwdsAz2-4" value="ACTOR" style="whiteSpace=wrap;html=1;align=center;fontStyle=1;strokeWidth=2;" parent="1" vertex="1">
          <mxGeometry x="590" y="130" width="90" height="30" as="geometry" />
        </mxCell>
        <mxCell id="oCjEifJK1wwtSCwdsAz2-5" value="Title" style="ellipse;whiteSpace=wrap;html=1;align=center;fontStyle=5" parent="1" vertex="1">
          <mxGeometry x="10" y="60" width="70" height="30" as="geometry" />
        </mxCell>
        <mxCell id="oCjEifJK1wwtSCwdsAz2-6" value="Year" style="ellipse;whiteSpace=wrap;html=1;align=center;fontStyle=5" parent="1" vertex="1">
          <mxGeometry x="70" y="30" width="70" height="30" as="geometry" />
        </mxCell>
        <mxCell id="oCjEifJK1wwtSCwdsAz2-7" value="Length" style="ellipse;whiteSpace=wrap;html=1;align=center;fontStyle=1" parent="1" vertex="1">
          <mxGeometry x="151" y="29" width="70" height="30" as="geometry" />
        </mxCell>
        <mxCell id="oCjEifJK1wwtSCwdsAz2-9" value="Plot&lt;br&gt;Outline" style="ellipse;whiteSpace=wrap;html=1;align=center;fontStyle=1" parent="1" vertex="1">
          <mxGeometry y="110" width="70" height="30" as="geometry" />
        </mxCell>
        <mxCell id="oCjEifJK1wwtSCwdsAz2-11" value="Name" style="ellipse;whiteSpace=wrap;html=1;align=center;fontStyle=5" parent="1" vertex="1">
          <mxGeometry x="550" y="70" width="70" height="30" as="geometry" />
        </mxCell>
        <mxCell id="oCjEifJK1wwtSCwdsAz2-12" value="DOB" style="ellipse;whiteSpace=wrap;html=1;align=center;fontStyle=5" parent="1" vertex="1">
          <mxGeometry x="640" y="50" width="70" height="30" as="geometry" />
        </mxCell>
        <mxCell id="oCjEifJK1wwtSCwdsAz2-13" value="Role" style="ellipse;whiteSpace=wrap;html=1;align=center;fontStyle=1" parent="1" vertex="1">
          <mxGeometry x="410" y="190" width="70" height="30" as="geometry" />
        </mxCell>
        <mxCell id="oCjEifJK1wwtSCwdsAz2-14" value="Name" style="ellipse;whiteSpace=wrap;html=1;align=center;fontStyle=5" parent="1" vertex="1">
          <mxGeometry x="620" y="340" width="70" height="30" as="geometry" />
        </mxCell>
        <mxCell id="oCjEifJK1wwtSCwdsAz2-15" value="DOB" style="ellipse;whiteSpace=wrap;html=1;align=center;fontStyle=5" parent="1" vertex="1">
          <mxGeometry x="710" y="370" width="70" height="30" as="geometry" />
        </mxCell>
        <mxCell id="oCjEifJK1wwtSCwdsAz2-16" value="Name" style="ellipse;whiteSpace=wrap;html=1;align=center;fontStyle=5" parent="1" vertex="1">
          <mxGeometry x="40" y="410" width="70" height="30" as="geometry" />
        </mxCell>
        <mxCell id="oCjEifJK1wwtSCwdsAz2-17" value="Address" style="ellipse;whiteSpace=wrap;html=1;align=center;fontStyle=5" parent="1" vertex="1">
          <mxGeometry x="10" y="480" width="70" height="30" as="geometry" />
        </mxCell>
        <mxCell id="oCjEifJK1wwtSCwdsAz2-18" value="Acted by" style="shape=rhombus;perimeter=rhombusPerimeter;whiteSpace=wrap;html=1;align=center;" parent="1" vertex="1">
          <mxGeometry x="350" y="130" width="90" height="30" as="geometry" />
        </mxCell>
        <mxCell id="oCjEifJK1wwtSCwdsAz2-19" value="Directed by" style="shape=rhombus;perimeter=rhombusPerimeter;whiteSpace=wrap;html=1;align=center;" parent="1" vertex="1">
          <mxGeometry x="330" y="240" width="90" height="30" as="geometry" />
        </mxCell>
        <mxCell id="oCjEifJK1wwtSCwdsAz2-20" value="" style="endArrow=none;html=1;rounded=0;exitX=0;exitY=0.5;exitDx=0;exitDy=0;entryX=1;entryY=0.5;entryDx=0;entryDy=0;" parent="1" source="oCjEifJK1wwtSCwdsAz2-1" target="oCjEifJK1wwtSCwdsAz2-9" edge="1">
          <mxGeometry relative="1" as="geometry">
            <mxPoint x="330" y="280" as="sourcePoint" />
            <mxPoint x="490" y="280" as="targetPoint" />
          </mxGeometry>
        </mxCell>
        <mxCell id="oCjEifJK1wwtSCwdsAz2-21" value="" style="endArrow=none;html=1;rounded=0;entryX=1;entryY=0.5;entryDx=0;entryDy=0;" parent="1" target="oCjEifJK1wwtSCwdsAz2-5" edge="1">
          <mxGeometry relative="1" as="geometry">
            <mxPoint x="130" y="130" as="sourcePoint" />
            <mxPoint x="80" y="135" as="targetPoint" />
          </mxGeometry>
        </mxCell>
        <mxCell id="oCjEifJK1wwtSCwdsAz2-22" value="" style="endArrow=none;html=1;rounded=0;entryX=0.5;entryY=1;entryDx=0;entryDy=0;exitX=0.333;exitY=0.033;exitDx=0;exitDy=0;exitPerimeter=0;" parent="1" source="oCjEifJK1wwtSCwdsAz2-1" target="oCjEifJK1wwtSCwdsAz2-6" edge="1">
          <mxGeometry relative="1" as="geometry">
            <mxPoint x="151" y="131" as="sourcePoint" />
            <mxPoint x="90" y="85" as="targetPoint" />
          </mxGeometry>
        </mxCell>
        <mxCell id="oCjEifJK1wwtSCwdsAz2-23" value="" style="endArrow=none;html=1;rounded=0;exitX=0.5;exitY=0;exitDx=0;exitDy=0;entryX=0.34;entryY=1;entryDx=0;entryDy=0;entryPerimeter=0;" parent="1" source="oCjEifJK1wwtSCwdsAz2-1" target="oCjEifJK1wwtSCwdsAz2-7" edge="1">
          <mxGeometry relative="1" as="geometry">
            <mxPoint x="152.5" y="140" as="sourcePoint" />
            <mxPoint x="115" y="70" as="targetPoint" />
          </mxGeometry>
        </mxCell>
        <mxCell id="oCjEifJK1wwtSCwdsAz2-24" value="" style="endArrow=none;html=1;rounded=0;exitX=0.75;exitY=0;exitDx=0;exitDy=0;entryX=0;entryY=1;entryDx=0;entryDy=0;" parent="1" source="oCjEifJK1wwtSCwdsAz2-1" edge="1">
          <mxGeometry relative="1" as="geometry">
            <mxPoint x="175" y="140" as="sourcePoint" />
            <mxPoint x="240.25126265847075" y="65.60660171779818" as="targetPoint" />
          </mxGeometry>
        </mxCell>
        <mxCell id="oCjEifJK1wwtSCwdsAz2-25" value="" style="endArrow=none;html=1;rounded=0;exitX=0.5;exitY=1;exitDx=0;exitDy=0;entryX=0.25;entryY=0;entryDx=0;entryDy=0;" parent="1" source="oCjEifJK1wwtSCwdsAz2-11" target="oCjEifJK1wwtSCwdsAz2-4" edge="1">
          <mxGeometry relative="1" as="geometry">
            <mxPoint x="197.5" y="140" as="sourcePoint" />
            <mxPoint x="250.25126265847075" y="75.60660171779841" as="targetPoint" />
          </mxGeometry>
        </mxCell>
        <mxCell id="oCjEifJK1wwtSCwdsAz2-26" value="" style="endArrow=none;html=1;rounded=0;exitX=0.5;exitY=1;exitDx=0;exitDy=0;entryX=0.75;entryY=0;entryDx=0;entryDy=0;" parent="1" source="oCjEifJK1wwtSCwdsAz2-12" target="oCjEifJK1wwtSCwdsAz2-4" edge="1">
          <mxGeometry relative="1" as="geometry">
            <mxPoint x="595" y="110" as="sourcePoint" />
            <mxPoint x="622.5" y="140" as="targetPoint" />
          </mxGeometry>
        </mxCell>
        <mxCell id="oCjEifJK1wwtSCwdsAz2-27" value="" style="shape=link;html=1;rounded=0;exitX=1;exitY=0.5;exitDx=0;exitDy=0;entryX=0;entryY=0.5;entryDx=0;entryDy=0;" parent="1" source="oCjEifJK1wwtSCwdsAz2-1" target="oCjEifJK1wwtSCwdsAz2-18" edge="1">
          <mxGeometry relative="1" as="geometry">
            <mxPoint x="330" y="280" as="sourcePoint" />
            <mxPoint x="490" y="280" as="targetPoint" />
          </mxGeometry>
        </mxCell>
        <mxCell id="oCjEifJK1wwtSCwdsAz2-28" value="M" style="resizable=0;html=1;align=left;verticalAlign=bottom;" parent="oCjEifJK1wwtSCwdsAz2-27" connectable="0" vertex="1">
          <mxGeometry x="-1" relative="1" as="geometry">
            <mxPoint x="5" as="offset" />
          </mxGeometry>
        </mxCell>
        <mxCell id="oCjEifJK1wwtSCwdsAz2-35" value="" style="shape=link;html=1;rounded=0;exitX=0.5;exitY=1;exitDx=0;exitDy=0;entryX=0;entryY=0.5;entryDx=0;entryDy=0;" parent="1" source="oCjEifJK1wwtSCwdsAz2-1" target="oCjEifJK1wwtSCwdsAz2-19" edge="1">
          <mxGeometry relative="1" as="geometry">
            <mxPoint x="180" y="175" as="sourcePoint" />
            <mxPoint x="335" y="290" as="targetPoint" />
          </mxGeometry>
        </mxCell>
        <mxCell id="oCjEifJK1wwtSCwdsAz2-36" value="1" style="resizable=0;html=1;align=left;verticalAlign=bottom;" parent="oCjEifJK1wwtSCwdsAz2-35" connectable="0" vertex="1">
          <mxGeometry x="-1" relative="1" as="geometry">
            <mxPoint x="31" y="15" as="offset" />
          </mxGeometry>
        </mxCell>
        <mxCell id="oCjEifJK1wwtSCwdsAz2-41" value="" style="endArrow=none;html=1;rounded=0;exitX=1;exitY=0.5;exitDx=0;exitDy=0;entryX=0.684;entryY=0.027;entryDx=0;entryDy=0;entryPerimeter=0;" parent="1" source="oCjEifJK1wwtSCwdsAz2-19" target="oCjEifJK1wwtSCwdsAz2-3" edge="1">
          <mxGeometry relative="1" as="geometry">
            <mxPoint x="450" y="155" as="sourcePoint" />
            <mxPoint x="640" y="450" as="targetPoint" />
          </mxGeometry>
        </mxCell>
        <mxCell id="oCjEifJK1wwtSCwdsAz2-42" value="N" style="resizable=0;html=1;align=right;verticalAlign=bottom;" parent="oCjEifJK1wwtSCwdsAz2-41" connectable="0" vertex="1">
          <mxGeometry x="1" relative="1" as="geometry">
            <mxPoint x="-20.189999999999998" y="-23.16" as="offset" />
          </mxGeometry>
        </mxCell>
        <mxCell id="oCjEifJK1wwtSCwdsAz2-43" value="" style="endArrow=none;html=1;rounded=0;entryX=0.5;entryY=1;entryDx=0;entryDy=0;" parent="1" source="BDHelyDisq8qAxo0rcKa-5" target="oCjEifJK1wwtSCwdsAz2-18" edge="1">
          <mxGeometry relative="1" as="geometry">
            <mxPoint x="349.74873734152925" y="184.39339828220182" as="sourcePoint" />
            <mxPoint x="490" y="280" as="targetPoint" />
          </mxGeometry>
        </mxCell>
        <mxCell id="oCjEifJK1wwtSCwdsAz2-44" value="" style="endArrow=none;html=1;rounded=0;exitX=0.5;exitY=0;exitDx=0;exitDy=0;entryX=0.5;entryY=1;entryDx=0;entryDy=0;" parent="1" source="oCjEifJK1wwtSCwdsAz2-13" target="oCjEifJK1wwtSCwdsAz2-18" edge="1">
          <mxGeometry relative="1" as="geometry">
            <mxPoint x="359.74873734152925" y="194.3933982822017" as="sourcePoint" />
            <mxPoint x="405" y="170" as="targetPoint" />
          </mxGeometry>
        </mxCell>
        <mxCell id="oCjEifJK1wwtSCwdsAz2-45" value="" style="endArrow=none;html=1;rounded=0;exitX=0.5;exitY=1;exitDx=0;exitDy=0;entryX=0.75;entryY=0;entryDx=0;entryDy=0;" parent="1" source="oCjEifJK1wwtSCwdsAz2-14" edge="1" target="oCjEifJK1wwtSCwdsAz2-3">
          <mxGeometry relative="1" as="geometry">
            <mxPoint x="330" y="280" as="sourcePoint" />
            <mxPoint x="610" y="450" as="targetPoint" />
          </mxGeometry>
        </mxCell>
        <mxCell id="oCjEifJK1wwtSCwdsAz2-46" value="" style="endArrow=none;html=1;rounded=0;exitX=0.5;exitY=1;exitDx=0;exitDy=0;entryX=0.75;entryY=0;entryDx=0;entryDy=0;" parent="1" source="oCjEifJK1wwtSCwdsAz2-15" target="oCjEifJK1wwtSCwdsAz2-3" edge="1">
          <mxGeometry relative="1" as="geometry">
            <mxPoint x="600" y="420" as="sourcePoint" />
            <mxPoint x="650" y="450" as="targetPoint" />
          </mxGeometry>
        </mxCell>
        <mxCell id="oCjEifJK1wwtSCwdsAz2-47" value="" style="endArrow=none;html=1;rounded=0;exitX=1;exitY=1;exitDx=0;exitDy=0;entryX=0;entryY=0.75;entryDx=0;entryDy=0;" parent="1" source="oCjEifJK1wwtSCwdsAz2-16" target="oCjEifJK1wwtSCwdsAz2-2" edge="1">
          <mxGeometry relative="1" as="geometry">
            <mxPoint x="330" y="280" as="sourcePoint" />
            <mxPoint x="490" y="280" as="targetPoint" />
          </mxGeometry>
        </mxCell>
        <mxCell id="oCjEifJK1wwtSCwdsAz2-48" value="" style="endArrow=none;html=1;rounded=0;exitX=1;exitY=0.5;exitDx=0;exitDy=0;entryX=0;entryY=0.75;entryDx=0;entryDy=0;" parent="1" source="oCjEifJK1wwtSCwdsAz2-17" target="oCjEifJK1wwtSCwdsAz2-2" edge="1">
          <mxGeometry relative="1" as="geometry">
            <mxPoint x="109.74873734152925" y="445.6066017177982" as="sourcePoint" />
            <mxPoint x="130" y="482.5" as="targetPoint" />
          </mxGeometry>
        </mxCell>
        <mxCell id="oCjEifJK1wwtSCwdsAz2-49" value="Produces" style="shape=rhombus;perimeter=rhombusPerimeter;whiteSpace=wrap;html=1;align=center;" parent="1" vertex="1">
          <mxGeometry x="117" y="290" width="90" height="30" as="geometry" />
        </mxCell>
        <mxCell id="oCjEifJK1wwtSCwdsAz2-50" value="" style="shape=link;html=1;rounded=0;exitX=0.5;exitY=0;exitDx=0;exitDy=0;entryX=0.404;entryY=1.047;entryDx=0;entryDy=0;entryPerimeter=0;" parent="1" source="oCjEifJK1wwtSCwdsAz2-49" target="oCjEifJK1wwtSCwdsAz2-1" edge="1">
          <mxGeometry relative="1" as="geometry">
            <mxPoint x="330" y="280" as="sourcePoint" />
            <mxPoint x="490" y="280" as="targetPoint" />
          </mxGeometry>
        </mxCell>
        <mxCell id="oCjEifJK1wwtSCwdsAz2-51" value="N" style="resizable=0;html=1;align=right;verticalAlign=bottom;" parent="oCjEifJK1wwtSCwdsAz2-50" connectable="0" vertex="1">
          <mxGeometry x="1" relative="1" as="geometry">
            <mxPoint x="-5.35" y="18.71" as="offset" />
          </mxGeometry>
        </mxCell>
        <mxCell id="oCjEifJK1wwtSCwdsAz2-54" value="" style="endArrow=none;html=1;rounded=0;entryX=0.587;entryY=0.027;entryDx=0;entryDy=0;exitX=1;exitY=1;exitDx=0;exitDy=0;entryPerimeter=0;" parent="1" source="BDHelyDisq8qAxo0rcKa-2" target="oCjEifJK1wwtSCwdsAz2-3" edge="1">
          <mxGeometry relative="1" as="geometry">
            <mxPoint x="330" y="330" as="sourcePoint" />
            <mxPoint x="490" y="280" as="targetPoint" />
          </mxGeometry>
        </mxCell>
        <mxCell id="oCjEifJK1wwtSCwdsAz2-55" value="" style="resizable=0;html=1;align=left;verticalAlign=bottom;" parent="1" connectable="0" vertex="1">
          <mxGeometry x="190" y="193" as="geometry">
            <mxPoint x="446" y="247" as="offset" />
          </mxGeometry>
        </mxCell>
        <mxCell id="oCjEifJK1wwtSCwdsAz2-56" value="&lt;b style=&quot;font-size: 16px;&quot;&gt;MOVIE DATABASE&lt;/b&gt;" style="text;html=1;strokeColor=none;fillColor=none;align=center;verticalAlign=middle;whiteSpace=wrap;rounded=0;fontSize=16;" parent="1" vertex="1">
          <mxGeometry x="340" y="-10" width="150" height="20" as="geometry" />
        </mxCell>
        <mxCell id="BDHelyDisq8qAxo0rcKa-1" value="&lt;span style=&quot;font-weight: 700&quot;&gt;Genres&lt;/span&gt;" style="ellipse;shape=doubleEllipse;margin=3;whiteSpace=wrap;html=1;align=center;" vertex="1" parent="1">
          <mxGeometry x="230" y="40" width="70" height="30" as="geometry" />
        </mxCell>
        <mxCell id="BDHelyDisq8qAxo0rcKa-2" value="Acted by" style="shape=rhombus;perimeter=rhombusPerimeter;whiteSpace=wrap;html=1;align=center;" vertex="1" parent="1">
          <mxGeometry x="280" y="300" width="90" height="30" as="geometry" />
        </mxCell>
        <mxCell id="BDHelyDisq8qAxo0rcKa-3" value="" style="endArrow=none;html=1;rounded=0;entryX=0;entryY=0;entryDx=0;entryDy=0;" edge="1" parent="1" target="BDHelyDisq8qAxo0rcKa-2">
          <mxGeometry relative="1" as="geometry">
            <mxPoint x="160" y="160" as="sourcePoint" />
            <mxPoint x="600" y="155" as="targetPoint" />
          </mxGeometry>
        </mxCell>
        <mxCell id="BDHelyDisq8qAxo0rcKa-4" value="M" style="resizable=0;html=1;align=right;verticalAlign=bottom;" connectable="0" vertex="1" parent="BDHelyDisq8qAxo0rcKa-3">
          <mxGeometry x="1" relative="1" as="geometry">
            <mxPoint x="-119.44" y="-104.43" as="offset" />
          </mxGeometry>
        </mxCell>
        <mxCell id="BDHelyDisq8qAxo0rcKa-5" value="&lt;span style=&quot;font-weight: 700&quot;&gt;Genres&lt;/span&gt;" style="ellipse;shape=doubleEllipse;margin=3;whiteSpace=wrap;html=1;align=center;" vertex="1" parent="1">
          <mxGeometry x="310" y="190" width="70" height="30" as="geometry" />
        </mxCell>
        <mxCell id="BDHelyDisq8qAxo0rcKa-8" value="Role" style="ellipse;whiteSpace=wrap;html=1;align=center;fontStyle=1" vertex="1" parent="1">
          <mxGeometry x="320" y="360" width="70" height="30" as="geometry" />
        </mxCell>
        <mxCell id="BDHelyDisq8qAxo0rcKa-9" value="" style="endArrow=none;html=1;rounded=0;entryX=0.5;entryY=1;entryDx=0;entryDy=0;" edge="1" parent="1" source="BDHelyDisq8qAxo0rcKa-11">
          <mxGeometry relative="1" as="geometry">
            <mxPoint x="279.74873734152925" y="354.3933982822018" as="sourcePoint" />
            <mxPoint x="325" y="330" as="targetPoint" />
          </mxGeometry>
        </mxCell>
        <mxCell id="BDHelyDisq8qAxo0rcKa-10" value="" style="endArrow=none;html=1;rounded=0;exitX=0.5;exitY=0;exitDx=0;exitDy=0;entryX=0.5;entryY=1;entryDx=0;entryDy=0;" edge="1" parent="1" source="BDHelyDisq8qAxo0rcKa-8">
          <mxGeometry relative="1" as="geometry">
            <mxPoint x="289.74873734152925" y="364.3933982822017" as="sourcePoint" />
            <mxPoint x="325" y="330" as="targetPoint" />
          </mxGeometry>
        </mxCell>
        <mxCell id="BDHelyDisq8qAxo0rcKa-11" value="&lt;span style=&quot;font-weight: 700&quot;&gt;Genres&lt;/span&gt;" style="ellipse;shape=doubleEllipse;margin=3;whiteSpace=wrap;html=1;align=center;" vertex="1" parent="1">
          <mxGeometry x="240" y="360" width="70" height="30" as="geometry" />
        </mxCell>
        <mxCell id="BDHelyDisq8qAxo0rcKa-12" value="" style="shape=link;html=1;rounded=0;exitX=1;exitY=0.5;exitDx=0;exitDy=0;entryX=0;entryY=0.5;entryDx=0;entryDy=0;" edge="1" parent="1" target="oCjEifJK1wwtSCwdsAz2-4">
          <mxGeometry relative="1" as="geometry">
            <mxPoint x="440" y="144.5" as="sourcePoint" />
            <mxPoint x="580" y="144.5" as="targetPoint" />
          </mxGeometry>
        </mxCell>
        <mxCell id="BDHelyDisq8qAxo0rcKa-13" value="N" style="resizable=0;html=1;align=left;verticalAlign=bottom;" connectable="0" vertex="1" parent="BDHelyDisq8qAxo0rcKa-12">
          <mxGeometry x="-1" relative="1" as="geometry">
            <mxPoint x="130" y="-4.5" as="offset" />
          </mxGeometry>
        </mxCell>
        <mxCell id="BDHelyDisq8qAxo0rcKa-14" value="N" style="resizable=0;html=1;align=right;verticalAlign=bottom;" connectable="0" vertex="1" parent="1">
          <mxGeometry x="641.1778092152276" y="440.4874810953261" as="geometry">
            <mxPoint x="-38" y="8" as="offset" />
          </mxGeometry>
        </mxCell>
        <mxCell id="BDHelyDisq8qAxo0rcKa-16" value="" style="shape=link;html=1;rounded=0;exitX=0.5;exitY=0;exitDx=0;exitDy=0;entryX=0.5;entryY=1;entryDx=0;entryDy=0;" edge="1" parent="1" source="oCjEifJK1wwtSCwdsAz2-2" target="oCjEifJK1wwtSCwdsAz2-49">
          <mxGeometry relative="1" as="geometry">
            <mxPoint x="169.32" y="450" as="sourcePoint" />
            <mxPoint x="160" y="321" as="targetPoint" />
          </mxGeometry>
        </mxCell>
        <mxCell id="BDHelyDisq8qAxo0rcKa-17" value="1" style="resizable=0;html=1;align=right;verticalAlign=bottom;" connectable="0" vertex="1" parent="BDHelyDisq8qAxo0rcKa-16">
          <mxGeometry x="1" relative="1" as="geometry">
            <mxPoint x="-11" y="129.97" as="offset" />
          </mxGeometry>
        </mxCell>
      </root>
    </mxGraphModel>
  </diagram>
</mxfile>
